# xmcd
#
# Track frame offsets:
#	150
#	13287
#	25517
#	39825
#	55270
#	70027
#	81890
#	93035
#	106442
#	122855
#	135397
#	150875
#	166635
#	177612
#	191480
#	207267
#
# Disc length: 2936 seconds
#
# Revision: 0
# Processed by: cddbd v1.4PL0 Copyright (c) Steve Scherf et al.
# Submitted via: dBpowerAMP V4.0
#
DISCID=c00b7610
DTITLE=Tammy Wynnette - I Love Country
DYEAR=1900
DGENRE=Country
TTITLE0=Womanhood
TTITLE1=Two Story House
TTITLE2=Crying In The Rain
TTITLE3=Bring Back My Baby To Me
TTITLE4=He Was There (When I Needed You)
TTITLE5=Cheatin' Is
TTITLE6=Heaven's Just A Sin Away
TTITLE7=Cowboys Don't Shoot Straight (Like They Used To)
TTITLE8=Sometimes When We Touch
TTITLE9=Funny Face
TTITLE10=You Needed Me
TTITLE11=Sweet Music Man
TTITLE12=Pair Of Old Sneakers
TTITLE13=Dear Daughters
TTITLE14=Easy Come, Easy Go
TTITLE15=I'd Like To See Jesus (On The Midnight Special)
EXTD=
EXTT0=
EXTT1=
EXTT2=
EXTT3=
EXTT4=
EXTT5=
EXTT6=
EXTT7=
EXTT8=
EXTT9=
EXTT10=
EXTT11=
EXTT12=
EXTT13=
EXTT14=
EXTT15=
PLAYORDER=
